<svg xmlns="http://www.w3.org/2000/svg" width="79.221" height="73.941" viewBox="0 0 79.221 73.941">
  <g id="bathtub" transform="translate(0 0.001)">
    <g id="Group_2" data-name="Group 2">
      <g id="Group_1" data-name="Group 1">
        <path id="Path_9" data-name="Path 9" d="M74.26,55.678H72.94V27.95A11.834,11.834,0,0,0,61.057,16.067c-5.844,0-10.047,4.333-10.518,10.683a6.525,6.525,0,0,0-5.327,6.482,1.247,1.247,0,0,0,1.32,1.32H57.1a1.247,1.247,0,0,0,1.32-1.32,6.526,6.526,0,0,0-5.225-6.463c.395-4.2,2.914-8.061,7.866-8.061A9.186,9.186,0,0,1,70.3,27.95V55.678H30.561A6.526,6.526,0,0,0,24.087,50.4a6.893,6.893,0,0,0-5.281-2.641A6.528,6.528,0,0,0,13,51.32,7.843,7.843,0,0,0,9.563,50.4a6.526,6.526,0,0,0-6.474,5.281H2.961a3.961,3.961,0,0,0,0,7.922H4.548L8.11,77.728a9.315,9.315,0,0,0,8.978,7h1.056l-1.716,3.433a1.165,1.165,0,0,0,.528,1.716.794.794,0,0,0,.528.132,1.387,1.387,0,0,0,1.188-.66l2.311-4.621h36.64l2.245,4.489a1.269,1.269,0,0,0,1.188.792c.264,0,.4,0,.528-.264a1.391,1.391,0,0,0,.528-1.716l-1.654-3.308a9.349,9.349,0,0,0,8.652-6.859l3.6-14.26H74.26a3.961,3.961,0,1,0,0-7.922ZM55.643,31.911H48.117a4.015,4.015,0,0,1,3.829-2.641A3.846,3.846,0,0,1,55.643,31.911ZM9.563,53.037a4.436,4.436,0,0,1,3.169,1.452,1.2,1.2,0,0,0,1.32.4,1.279,1.279,0,0,0,.924-1.056A4.088,4.088,0,0,1,18.937,50.4a3.69,3.69,0,0,1,3.433,1.981,1.328,1.328,0,0,0,1.452.66h.4a3.846,3.846,0,0,1,3.7,2.641H5.866A3.846,3.846,0,0,1,9.563,53.037ZM66.734,77.067a6.775,6.775,0,0,1-6.47,5.017H17.221a6.775,6.775,0,0,1-6.47-5.017L7.318,63.6H69.9ZM74.26,60.959H2.961a1.32,1.32,0,0,1,0-2.641h71.3a1.32,1.32,0,0,1,0,2.641Z" transform="translate(1 -16.067)" fill="#fff"/>
        <path id="Path_10" data-name="Path 10" d="M298.987,155.9a1.247,1.247,0,0,0,1.32-1.32v-.66a1.32,1.32,0,1,0-2.641,0v.66A1.247,1.247,0,0,0,298.987,155.9Z" transform="translate(-251.454 -131.474)" fill="#fff"/>
        <path id="Path_11" data-name="Path 11" d="M298.987,190.827a1.323,1.323,0,0,0,1.32-1.32v-1.452a1.32,1.32,0,0,0-2.641,0v1.452A1.247,1.247,0,0,0,298.987,190.827Z" transform="translate(-251.454 -160.327)" fill="#fff"/>
        <path id="Path_12" data-name="Path 12" d="M298.987,228.435a1.247,1.247,0,0,0,1.32-1.32v-.66a1.32,1.32,0,1,0-2.641,0v.66A1.247,1.247,0,0,0,298.987,228.435Z" transform="translate(-251.454 -192.785)" fill="#fff"/>
        <path id="Path_13" data-name="Path 13" d="M333.12,155.9a1.247,1.247,0,0,0,1.32-1.32v-.66a1.32,1.32,0,1,0-2.641,0v.66A1.247,1.247,0,0,0,333.12,155.9Z" transform="translate(-280.306 -131.474)" fill="#fff"/>
        <path id="Path_14" data-name="Path 14" d="M331.8,189.506a1.247,1.247,0,0,0,1.32,1.32,1.323,1.323,0,0,0,1.32-1.32v-1.452a1.32,1.32,0,1,0-2.641,0Z" transform="translate(-280.306 -160.326)" fill="#fff"/>
        <path id="Path_15" data-name="Path 15" d="M331.8,227.114a1.32,1.32,0,1,0,2.641,0v-.66a1.32,1.32,0,1,0-2.641,0Z" transform="translate(-280.306 -192.784)" fill="#fff"/>
        <path id="Path_16" data-name="Path 16" d="M367.254,155.9a1.247,1.247,0,0,0,1.32-1.32v-.66a1.32,1.32,0,1,0-2.641,0v.66A1.247,1.247,0,0,0,367.254,155.9Z" transform="translate(-309.159 -131.474)" fill="#fff"/>
        <path id="Path_17" data-name="Path 17" d="M365.933,189.506a1.247,1.247,0,0,0,1.32,1.32,1.323,1.323,0,0,0,1.32-1.32v-1.452a1.32,1.32,0,1,0-2.641,0v1.452Z" transform="translate(-309.158 -160.326)" fill="#fff"/>
        <path id="Path_18" data-name="Path 18" d="M365.933,227.114a1.32,1.32,0,1,0,2.641,0v-.66a1.32,1.32,0,1,0-2.641,0Z" transform="translate(-309.158 -192.784)" fill="#fff"/>
      </g>
    </g>
  </g>
</svg>
