<svg xmlns="http://www.w3.org/2000/svg" width="88.657" height="81.195" viewBox="0 0 88.657 81.195">
  <g id="iconfinder__Bone_754614" transform="translate(0 0)">
    <g id="iconfinder__Bone_754614-2" data-name="iconfinder__Bone_754614" transform="translate(12.921 0) rotate(11)">
      <path id="Path_5" data-name="Path 5" d="M13.329,57.317a10.087,10.087,0,0,0,3.993,7.574,13.728,13.728,0,0,0,8.519,2.826h0a13.725,13.725,0,0,0,9.318-3.5,9.513,9.513,0,0,0,.266-14.131L57.389,29.619a13.546,13.546,0,0,0,7.321,2.035,13.155,13.155,0,0,0,9.185-3.5c4.659-4.3,4.26-11.079-.8-15.036A13.8,13.8,0,0,0,63.912,10.4a10.087,10.087,0,0,0-3.993-7.574A14.193,14.193,0,0,0,42.081,3.5a9.932,9.932,0,0,0-3.328,7.687,9.6,9.6,0,0,0,3.195,6.67L19.984,38.211A14.213,14.213,0,0,0,12.4,36.063a13.725,13.725,0,0,0-9.318,3.5c-4.393,4.183-4.127,10.966,1.065,14.923A14.042,14.042,0,0,0,13.329,57.317ZM5.342,40.924a10.969,10.969,0,0,1,7.321-2.713,11.48,11.48,0,0,1,6.656,2.148l.133.113a1.456,1.456,0,0,0,1.864-.113L45.01,18.427a1.136,1.136,0,0,0,.4-.791.961.961,0,0,0-.4-.791l-.133-.113a7.779,7.779,0,0,1-3.195-5.879,7.87,7.87,0,0,1,2.529-6.1,10.969,10.969,0,0,1,7.321-2.713A10.556,10.556,0,0,1,58.188,4.3a7.585,7.585,0,0,1,3.062,7.009,1.181,1.181,0,0,0,.4.9,1.449,1.449,0,0,0,1.2.226,11.166,11.166,0,0,1,8.519,2.035,7.631,7.631,0,0,1,.666,11.87,10.969,10.969,0,0,1-7.321,2.713,11.481,11.481,0,0,1-6.656-2.148,1.456,1.456,0,0,0-1.864.113L32.5,49.29a.991.991,0,0,0,.133,1.583c3.86,3.165,4.127,8.479.532,11.757a10.969,10.969,0,0,1-7.321,2.713h0a10.556,10.556,0,0,1-6.656-2.261,7.585,7.585,0,0,1-3.062-7.009,1.181,1.181,0,0,0-.4-.9,1.317,1.317,0,0,0-.932-.339h-.266a11.166,11.166,0,0,1-8.519-2.035A7.464,7.464,0,0,1,5.342,40.924Z" transform="translate(0 0)" fill="#fff"/>
    </g>
  </g>
</svg>
