<svg id="iconfinder_46.Calendar_290104" xmlns="http://www.w3.org/2000/svg" width="72.197" height="58" viewBox="0 0 72.197 58">
  <path id="iconfinder_46.Calendar_290104-2" data-name="iconfinder_46.Calendar_290104" d="M66.919,63H7.278A6.194,6.194,0,0,1,1,56.895V11.105A6.194,6.194,0,0,1,7.278,5H66.919A6.194,6.194,0,0,1,73.2,11.105V56.895A6.194,6.194,0,0,1,66.919,63Zm3.139-51.895a3.1,3.1,0,0,0-3.139-3.053H7.278a3.1,3.1,0,0,0-3.139,3.053v9.158H70.058Zm0,12.211H4.139V56.895a3.1,3.1,0,0,0,3.139,3.053H66.919a3.1,3.1,0,0,0,3.139-3.053ZM63.78,44.684H60.641a1.548,1.548,0,0,1-1.569-1.526V40.105a1.549,1.549,0,0,1,1.569-1.526H63.78a1.548,1.548,0,0,1,1.57,1.526v3.053A1.547,1.547,0,0,1,63.78,44.684ZM63.78,34H60.641a1.548,1.548,0,0,1-1.569-1.526V29.421a1.548,1.548,0,0,1,1.569-1.526H63.78a1.547,1.547,0,0,1,1.57,1.526v3.053A1.547,1.547,0,0,1,63.78,34ZM51.224,44.684H48.085a1.548,1.548,0,0,1-1.57-1.526V40.105a1.549,1.549,0,0,1,1.57-1.526h3.139a1.548,1.548,0,0,1,1.569,1.526v3.053A1.547,1.547,0,0,1,51.224,44.684Zm0-10.684H48.085a1.548,1.548,0,0,1-1.57-1.526V29.421a1.548,1.548,0,0,1,1.57-1.526h3.139a1.547,1.547,0,0,1,1.569,1.526v3.053A1.547,1.547,0,0,1,51.224,34ZM38.668,44.684H35.529a1.547,1.547,0,0,1-1.57-1.526V40.105a1.548,1.548,0,0,1,1.57-1.526h3.139a1.548,1.548,0,0,1,1.57,1.526v3.053A1.547,1.547,0,0,1,38.668,44.684Zm0-10.684H35.529a1.547,1.547,0,0,1-1.57-1.526V29.421a1.547,1.547,0,0,1,1.57-1.526h3.139a1.547,1.547,0,0,1,1.57,1.526v3.053A1.547,1.547,0,0,1,38.668,34ZM26.112,55.368H22.973a1.547,1.547,0,0,1-1.57-1.526V50.789a1.547,1.547,0,0,1,1.57-1.526h3.139a1.547,1.547,0,0,1,1.569,1.526v3.053A1.547,1.547,0,0,1,26.112,55.368Zm0-10.684H22.973a1.547,1.547,0,0,1-1.57-1.526V40.105a1.548,1.548,0,0,1,1.57-1.526h3.139a1.548,1.548,0,0,1,1.569,1.526v3.053A1.547,1.547,0,0,1,26.112,44.684Zm0-10.684H22.973a1.547,1.547,0,0,1-1.57-1.526V29.421a1.547,1.547,0,0,1,1.57-1.526h3.139a1.547,1.547,0,0,1,1.569,1.526v3.053A1.547,1.547,0,0,1,26.112,34ZM13.556,55.368H10.417a1.547,1.547,0,0,1-1.569-1.526V50.789a1.547,1.547,0,0,1,1.569-1.526h3.139a1.547,1.547,0,0,1,1.569,1.526v3.053A1.547,1.547,0,0,1,13.556,55.368Zm0-10.684H10.417a1.547,1.547,0,0,1-1.569-1.526V40.105a1.548,1.548,0,0,1,1.569-1.526h3.139a1.548,1.548,0,0,1,1.569,1.526v3.053A1.547,1.547,0,0,1,13.556,44.684Zm21.973,4.579h3.139a1.547,1.547,0,0,1,1.57,1.526v3.053a1.547,1.547,0,0,1-1.57,1.526H35.529a1.547,1.547,0,0,1-1.57-1.526V50.789A1.547,1.547,0,0,1,35.529,49.263Z" transform="translate(-1 -5)" fill="#fff" fill-rule="evenodd"/>
</svg>
