<svg id="iconfinder_9_375256" xmlns="http://www.w3.org/2000/svg" width="77.347" height="75.924" viewBox="0 0 77.347 75.924">
  <path id="Path_19" data-name="Path 19" d="M14.421,61.77a34.754,34.754,0,0,0,48.5,0,33.23,33.23,0,0,0,0-47.611,34.754,34.754,0,0,0-48.5,0,33.232,33.232,0,0,0,0,47.611M38.673,0C60.032,0,77.347,17,77.347,37.964S60.032,75.926,38.673,75.926,0,58.93,0,37.964,17.314,0,38.673,0Z" transform="translate(0 -0.003)" fill="#fff"/>
  <path id="Path_20" data-name="Path 20" d="M105.667,109.967c.11,6.236,2.218,12.353,5.482,15.638,3.773,4.344,9.839,2.988,13.342-1.958,3.416-4.823,3.261-8.711,3.261-14.457,0-5.6-5.656-9.692-10.648-8.155-6.19-1.41-11.437,1.922-11.437,8.931m4.12,42.981a2.726,2.726,0,1,1-5.44.174c0-2.652,1.352.019.019-4.363-1.219-4.009-1.63-10.738-.5-14.9a12.315,12.315,0,0,0,.479-1.928,20.4,20.4,0,0,0-6.924,2.779,6.055,6.055,0,0,0-2.253,2.662c-1.5,3.405-2.139,8.52-2.555,12.422-.311,2.916,2.583,3.154,2.583,6.4a2.108,2.108,0,0,0,1.814,1.737l14.231,4.487L127,162.187a34.429,34.429,0,0,0,6.393-2.978c.552-.963,1.35.026,1.271-.975-.137-1.725,6.58-4.026,6.351-5.708-.112-.816-.194-1.6-.237-2.357-.051-.9-.223-1.686-.3-2.462a45,45,0,0,0-1.779-8.9c-1-3.2-2.4-4.092-5.117-5.38a17.851,17.851,0,0,0-4.012-1.33c.452.994.014,5.674-.33,6.428,4.857,2.709,3.456,5.789,3.3,9.382-.1,2.294-.246,9.033-3.3,9.033-.689,0-2.307.188-2.307-.868,0-1.38.679-.884,1.776-1.081.772-.138.812-.436.918-.6.817-1.237,1-4.813,1.092-6.494.1-1.915.621-3.739-.017-5.358a3.809,3.809,0,0,0-6.613-.936,8.663,8.663,0,0,0-1.336,3.108c-.83,2.575-2.083,4.776-2.083,7.361,0,2.06,1.814.5,1.814,2.606,0,1.541-3.791.525-3.791-2.433,0-2.1,1.1-4.845,1.788-6.8.279-.79.487-1.331.746-2.166a7.572,7.572,0,0,1,2.006-3.619,5.082,5.082,0,0,1,4.2-1.485,14.672,14.672,0,0,0,.165-6.775c-1.205-.107-2.508-.945-3.626-1.043a23.27,23.27,0,0,1-.965,2.978,46.952,46.952,0,0,1-3.225,7.024l-.754,1.29a29.85,29.85,0,0,0-.542-3.6c-.459-3.141-.079-1.287.376-3.349-.765-.54-1.468-1.434-2.142-1.91-.875.488-1.432,1.292-2.308,1.91,1,2.2.664,1.7.259,4.269-.14.889-.36,1.887-.423,2.681-.027-.032-.062-.124-.072-.1l-.617-1.086c-1.345-2.36-3.91-7.812-4.091-10.108a6.245,6.245,0,0,0-2.807,1.037c-1.12,1.59-1.756,7.662-1.5,10.107s.231,4.584,1.105,7c.991,2.737-.175,1.158,1.9,2A3.04,3.04,0,0,1,109.787,152.948Z" transform="translate(-78.131 -89.02)" fill="#fff" fill-rule="evenodd"/>
</svg>
