<svg id="Page-1" xmlns="http://www.w3.org/2000/svg" width="61.921" height="72.371" viewBox="0 0 61.921 72.371">
  <g id="icon-136-document-edit">
    <path id="document-edit" d="M56.427,27.527,30.706,57.814h0L24.768,50.83,50.5,20.558l5.925,6.968Zm1.611-1.9,3.941-4.64a3.028,3.028,0,0,0-.011-3.8l-2.689-3.154a2.049,2.049,0,0,0-3.228-.009l-3.937,4.631,5.924,6.967ZM23.292,52.885l-1.457,8.343,7.144-1.655-5.687-6.689ZM46.3,21.763h0L32.627,3H7.564C5.044,3,3,5.408,3,8.38v61.61c0,2.971,2.03,5.38,4.552,5.38h34.2c2.514,0,4.552-2.408,4.552-5.336V43.206L63.576,22.888A6.06,6.06,0,0,0,63.6,15.3L60.91,12.141a4.082,4.082,0,0,0-6.45.026l-8.159,9.6ZM44.022,45.887V70.028a2.494,2.494,0,0,1-2.279,2.663H7.558a2.508,2.508,0,0,1-2.279-2.668V8.349A2.509,2.509,0,0,1,7.548,5.68h22.8V19.067c0,3,2.039,5.377,4.553,5.377h9.121l-22.79,26.8-2.279,13.4,11.4-2.68L44.022,45.887ZM32.627,7.021V19.059a2.523,2.523,0,0,0,2.271,2.7h8.44L32.627,7.021Z" transform="translate(-3 -3)" fill="#fff" fill-rule="evenodd"/>
  </g>
</svg>
