<svg xmlns="http://www.w3.org/2000/svg" width="61.076" height="59" viewBox="0 0 61.076 59">
  <g id="Icons" transform="translate(0 0)">
    <path id="Path_8" data-name="Path 8" d="M56.54,61H39.086A2.146,2.146,0,0,1,36.9,58.9V44.145H28.177V58.9A2.146,2.146,0,0,1,26,61H8.542A2.146,2.146,0,0,1,6.36,58.9V35.715H4.178a2.185,2.185,0,0,1-1.994-1.268,2.053,2.053,0,0,1,.4-2.273l28.363-29.5a2.235,2.235,0,0,1,3.185,0L62.5,32.174a2.053,2.053,0,0,1,.4,2.273A2.185,2.185,0,0,1,60.9,35.715H58.722V58.9A2.146,2.146,0,0,1,56.54,61ZM41.268,56.789H54.359V33.607A2.118,2.118,0,0,1,55.973,31.5L32.541,7.2,9.109,31.5a2.118,2.118,0,0,1,1.615,2.107V56.789H23.814V42.037A2.146,2.146,0,0,1,26,39.93H39.086a2.146,2.146,0,0,1,2.182,2.107Z" transform="translate(-2.003 -2.003)" fill="#fff"/>
  </g>
</svg>
